<mxfile host="app.diagrams.net" agent="Mozilla/5.0 (Macintosh; Intel Mac OS X 10_15_7) AppleWebKit/605.1.15 (KHTML, like Gecko) Version/17.1 Safari/605.1.15" version="26.1.0">
  <diagram name="Page-1" id="2YBvvXClWsGukQMizWep">
    <mxGraphModel dx="984" dy="667" grid="1" gridSize="10" guides="1" tooltips="1" connect="1" arrows="1" fold="1" page="1" pageScale="1" pageWidth="850" pageHeight="1100" math="0" shadow="0">
      <root>
        <mxCell id="0" />
        <mxCell id="1" parent="0" />
        <mxCell id="aM9ryv3xv72pqoxQDRHE-5" value=":Interfaz" style="shape=umlLifeline;perimeter=lifelinePerimeter;whiteSpace=wrap;html=1;container=0;dropTarget=0;collapsible=0;recursiveResize=0;outlineConnect=0;portConstraint=eastwest;newEdgeStyle={&quot;edgeStyle&quot;:&quot;elbowEdgeStyle&quot;,&quot;elbow&quot;:&quot;vertical&quot;,&quot;curved&quot;:0,&quot;rounded&quot;:0};" parent="1" vertex="1">
          <mxGeometry x="160" y="40" width="100" height="640" as="geometry" />
        </mxCell>
        <mxCell id="aM9ryv3xv72pqoxQDRHE-6" value="" style="html=1;points=[];perimeter=orthogonalPerimeter;outlineConnect=0;targetShapes=umlLifeline;portConstraint=eastwest;newEdgeStyle={&quot;edgeStyle&quot;:&quot;elbowEdgeStyle&quot;,&quot;elbow&quot;:&quot;vertical&quot;,&quot;curved&quot;:0,&quot;rounded&quot;:0};fillColor=#dae8fc;strokeColor=#6c8ebf;" parent="aM9ryv3xv72pqoxQDRHE-5" vertex="1">
          <mxGeometry x="45" y="70" width="10" height="530" as="geometry" />
        </mxCell>
        <mxCell id="aM9ryv3xv72pqoxQDRHE-7" value="Iniciar sistema" style="html=1;verticalAlign=bottom;endArrow=block;edgeStyle=elbowEdgeStyle;elbow=vertical;curved=0;rounded=0;" parent="1" source="t3nlj7Du9AAXi3R9bIyf-17" target="aM9ryv3xv72pqoxQDRHE-6" edge="1">
          <mxGeometry relative="1" as="geometry">
            <mxPoint x="95" y="120" as="sourcePoint" />
            <Array as="points">
              <mxPoint x="170" y="140" />
            </Array>
          </mxGeometry>
        </mxCell>
        <mxCell id="t3nlj7Du9AAXi3R9bIyf-7" value=":Variable A" style="shape=umlLifeline;perimeter=lifelinePerimeter;whiteSpace=wrap;html=1;container=1;dropTarget=0;collapsible=0;recursiveResize=0;outlineConnect=0;portConstraint=eastwest;newEdgeStyle={&quot;curved&quot;:0,&quot;rounded&quot;:0};" vertex="1" parent="1">
          <mxGeometry x="280" y="40" width="100" height="640" as="geometry" />
        </mxCell>
        <mxCell id="t3nlj7Du9AAXi3R9bIyf-12" value="" style="html=1;points=[[0,0,0,0,5],[0,1,0,0,-5],[1,0,0,0,5],[1,1,0,0,-5]];perimeter=orthogonalPerimeter;outlineConnect=0;targetShapes=umlLifeline;portConstraint=eastwest;newEdgeStyle={&quot;curved&quot;:0,&quot;rounded&quot;:0};fillColor=#dae8fc;strokeColor=#6c8ebf;" vertex="1" parent="t3nlj7Du9AAXi3R9bIyf-7">
          <mxGeometry x="45" y="70" width="10" height="350" as="geometry" />
        </mxCell>
        <mxCell id="t3nlj7Du9AAXi3R9bIyf-9" value=":Resultado" style="shape=umlLifeline;perimeter=lifelinePerimeter;whiteSpace=wrap;html=1;container=1;dropTarget=0;collapsible=0;recursiveResize=0;outlineConnect=0;portConstraint=eastwest;newEdgeStyle={&quot;curved&quot;:0,&quot;rounded&quot;:0};" vertex="1" parent="1">
          <mxGeometry x="640" y="40" width="100" height="640" as="geometry" />
        </mxCell>
        <mxCell id="t3nlj7Du9AAXi3R9bIyf-27" value="" style="html=1;points=[[0,0,0,0,5],[0,1,0,0,-5],[1,0,0,0,5],[1,1,0,0,-5]];perimeter=orthogonalPerimeter;outlineConnect=0;targetShapes=umlLifeline;portConstraint=eastwest;newEdgeStyle={&quot;curved&quot;:0,&quot;rounded&quot;:0};fillColor=#dae8fc;strokeColor=#6c8ebf;" vertex="1" parent="t3nlj7Du9AAXi3R9bIyf-9">
          <mxGeometry x="45" y="70" width="10" height="550" as="geometry" />
        </mxCell>
        <mxCell id="t3nlj7Du9AAXi3R9bIyf-10" value=":Variable B" style="shape=umlLifeline;perimeter=lifelinePerimeter;whiteSpace=wrap;html=1;container=1;dropTarget=0;collapsible=0;recursiveResize=0;outlineConnect=0;portConstraint=eastwest;newEdgeStyle={&quot;curved&quot;:0,&quot;rounded&quot;:0};" vertex="1" parent="1">
          <mxGeometry x="520" y="40" width="100" height="640" as="geometry" />
        </mxCell>
        <mxCell id="t3nlj7Du9AAXi3R9bIyf-26" value="" style="html=1;points=[[0,0,0,0,5],[0,1,0,0,-5],[1,0,0,0,5],[1,1,0,0,-5]];perimeter=orthogonalPerimeter;outlineConnect=0;targetShapes=umlLifeline;portConstraint=eastwest;newEdgeStyle={&quot;curved&quot;:0,&quot;rounded&quot;:0};fillColor=#dae8fc;strokeColor=#6c8ebf;" vertex="1" parent="t3nlj7Du9AAXi3R9bIyf-10">
          <mxGeometry x="45" y="70" width="10" height="410" as="geometry" />
        </mxCell>
        <mxCell id="t3nlj7Du9AAXi3R9bIyf-11" value=":Operacion" style="shape=umlLifeline;perimeter=lifelinePerimeter;whiteSpace=wrap;html=1;container=1;dropTarget=0;collapsible=0;recursiveResize=0;outlineConnect=0;portConstraint=eastwest;newEdgeStyle={&quot;curved&quot;:0,&quot;rounded&quot;:0};" vertex="1" parent="1">
          <mxGeometry x="400" y="40" width="100" height="640" as="geometry" />
        </mxCell>
        <mxCell id="t3nlj7Du9AAXi3R9bIyf-21" value="" style="html=1;points=[[0,0,0,0,5],[0,1,0,0,-5],[1,0,0,0,5],[1,1,0,0,-5]];perimeter=orthogonalPerimeter;outlineConnect=0;targetShapes=umlLifeline;portConstraint=eastwest;newEdgeStyle={&quot;curved&quot;:0,&quot;rounded&quot;:0};fillColor=#dae8fc;strokeColor=#6c8ebf;" vertex="1" parent="t3nlj7Du9AAXi3R9bIyf-11">
          <mxGeometry x="45" y="70" width="10" height="80" as="geometry" />
        </mxCell>
        <mxCell id="t3nlj7Du9AAXi3R9bIyf-20" value="" style="html=1;points=[[0,0,0,0,5],[0,1,0,0,-5],[1,0,0,0,5],[1,1,0,0,-5]];perimeter=orthogonalPerimeter;outlineConnect=0;targetShapes=umlLifeline;portConstraint=eastwest;newEdgeStyle={&quot;curved&quot;:0,&quot;rounded&quot;:0};fillColor=#dae8fc;strokeColor=#6c8ebf;" vertex="1" parent="t3nlj7Du9AAXi3R9bIyf-11">
          <mxGeometry x="45" y="160" width="10" height="80" as="geometry" />
        </mxCell>
        <mxCell id="t3nlj7Du9AAXi3R9bIyf-19" value="" style="html=1;points=[[0,0,0,0,5],[0,1,0,0,-5],[1,0,0,0,5],[1,1,0,0,-5]];perimeter=orthogonalPerimeter;outlineConnect=0;targetShapes=umlLifeline;portConstraint=eastwest;newEdgeStyle={&quot;curved&quot;:0,&quot;rounded&quot;:0};fillColor=#dae8fc;strokeColor=#6c8ebf;" vertex="1" parent="t3nlj7Du9AAXi3R9bIyf-11">
          <mxGeometry x="45" y="340" width="10" height="80" as="geometry" />
        </mxCell>
        <mxCell id="t3nlj7Du9AAXi3R9bIyf-18" value="" style="html=1;points=[[0,0,0,0,5],[0,1,0,0,-5],[1,0,0,0,5],[1,1,0,0,-5]];perimeter=orthogonalPerimeter;outlineConnect=0;targetShapes=umlLifeline;portConstraint=eastwest;newEdgeStyle={&quot;curved&quot;:0,&quot;rounded&quot;:0};fillColor=#dae8fc;strokeColor=#6c8ebf;" vertex="1" parent="t3nlj7Du9AAXi3R9bIyf-11">
          <mxGeometry x="45" y="250" width="10" height="80" as="geometry" />
        </mxCell>
        <mxCell id="t3nlj7Du9AAXi3R9bIyf-15" value=":Usuario" style="shape=umlLifeline;perimeter=lifelinePerimeter;whiteSpace=wrap;html=1;container=1;dropTarget=0;collapsible=0;recursiveResize=0;outlineConnect=0;portConstraint=eastwest;newEdgeStyle={&quot;curved&quot;:0,&quot;rounded&quot;:0};" vertex="1" parent="1">
          <mxGeometry x="40" y="40" width="100" height="640" as="geometry" />
        </mxCell>
        <mxCell id="t3nlj7Du9AAXi3R9bIyf-17" value="" style="html=1;points=[[0,0,0,0,5],[0,1,0,0,-5],[1,0,0,0,5],[1,1,0,0,-5]];perimeter=orthogonalPerimeter;outlineConnect=0;targetShapes=umlLifeline;portConstraint=eastwest;newEdgeStyle={&quot;curved&quot;:0,&quot;rounded&quot;:0};fillColor=#dae8fc;strokeColor=#6c8ebf;" vertex="1" parent="t3nlj7Du9AAXi3R9bIyf-15">
          <mxGeometry x="45" y="70" width="10" height="530" as="geometry" />
        </mxCell>
        <mxCell id="t3nlj7Du9AAXi3R9bIyf-23" value="Ingresar&lt;div&gt;&amp;nbsp;Variable A&lt;/div&gt;" style="html=1;verticalAlign=bottom;endArrow=block;edgeStyle=elbowEdgeStyle;elbow=vertical;curved=0;rounded=0;" edge="1" parent="1">
          <mxGeometry relative="1" as="geometry">
            <mxPoint x="215" y="160" as="sourcePoint" />
            <Array as="points" />
            <mxPoint x="325" y="160" as="targetPoint" />
          </mxGeometry>
        </mxCell>
        <mxCell id="t3nlj7Du9AAXi3R9bIyf-25" value="Definir&amp;nbsp;&lt;div&gt;&amp;nbsp; operaci贸n suma&lt;/div&gt;" style="html=1;verticalAlign=bottom;endArrow=block;edgeStyle=elbowEdgeStyle;elbow=vertical;curved=0;rounded=0;" edge="1" parent="1">
          <mxGeometry relative="1" as="geometry">
            <mxPoint x="335" y="130" as="sourcePoint" />
            <Array as="points" />
            <mxPoint x="445" y="130" as="targetPoint" />
          </mxGeometry>
        </mxCell>
        <mxCell id="t3nlj7Du9AAXi3R9bIyf-30" value="Definir&amp;nbsp;&lt;div&gt;&amp;nbsp; operaci贸n&amp;nbsp;&lt;/div&gt;&lt;div&gt;multiplicacion&lt;/div&gt;" style="html=1;verticalAlign=bottom;endArrow=block;edgeStyle=elbowEdgeStyle;elbow=vertical;curved=0;rounded=0;" edge="1" parent="1">
          <mxGeometry relative="1" as="geometry">
            <mxPoint x="335" y="310" as="sourcePoint" />
            <Array as="points" />
            <mxPoint x="445" y="310" as="targetPoint" />
          </mxGeometry>
        </mxCell>
        <mxCell id="t3nlj7Du9AAXi3R9bIyf-31" value="Definir&amp;nbsp;&lt;div&gt;&amp;nbsp; operaci贸n resta&lt;/div&gt;" style="html=1;verticalAlign=bottom;endArrow=block;edgeStyle=elbowEdgeStyle;elbow=vertical;curved=0;rounded=0;" edge="1" parent="1">
          <mxGeometry relative="1" as="geometry">
            <mxPoint x="335" y="220" as="sourcePoint" />
            <Array as="points" />
            <mxPoint x="445" y="220" as="targetPoint" />
          </mxGeometry>
        </mxCell>
        <mxCell id="t3nlj7Du9AAXi3R9bIyf-32" value="Definir&amp;nbsp;&lt;div&gt;&amp;nbsp; operaci贸n&amp;nbsp;&lt;/div&gt;&lt;div&gt;division&lt;/div&gt;" style="html=1;verticalAlign=bottom;endArrow=block;edgeStyle=elbowEdgeStyle;elbow=vertical;curved=0;rounded=0;" edge="1" parent="1">
          <mxGeometry relative="1" as="geometry">
            <mxPoint x="335" y="400" as="sourcePoint" />
            <Array as="points" />
            <mxPoint x="445" y="400" as="targetPoint" />
          </mxGeometry>
        </mxCell>
        <mxCell id="t3nlj7Du9AAXi3R9bIyf-38" value="Ingresa operacion&amp;nbsp;&lt;div&gt;secuencial&lt;/div&gt;" style="html=1;verticalAlign=bottom;endArrow=open;dashed=1;endSize=8;curved=0;rounded=0;" edge="1" parent="1">
          <mxGeometry relative="1" as="geometry">
            <mxPoint x="565" y="350" as="sourcePoint" />
            <mxPoint x="455" y="350" as="targetPoint" />
          </mxGeometry>
        </mxCell>
        <mxCell id="t3nlj7Du9AAXi3R9bIyf-40" value="Ingresa operacion&amp;nbsp;&lt;div&gt;secuencial&lt;/div&gt;" style="html=1;verticalAlign=bottom;endArrow=open;dashed=1;endSize=8;curved=0;rounded=0;" edge="1" parent="1">
          <mxGeometry relative="1" as="geometry">
            <mxPoint x="565" y="170" as="sourcePoint" />
            <mxPoint x="455" y="170" as="targetPoint" />
          </mxGeometry>
        </mxCell>
        <mxCell id="t3nlj7Du9AAXi3R9bIyf-41" value="Ingresa operacion&amp;nbsp;&lt;div&gt;secuencial&lt;/div&gt;" style="html=1;verticalAlign=bottom;endArrow=open;dashed=1;endSize=8;curved=0;rounded=0;" edge="1" parent="1">
          <mxGeometry relative="1" as="geometry">
            <mxPoint x="565" y="259.5" as="sourcePoint" />
            <mxPoint x="455" y="259.5" as="targetPoint" />
          </mxGeometry>
        </mxCell>
        <mxCell id="t3nlj7Du9AAXi3R9bIyf-42" value="Ingresa operacion&amp;nbsp;&lt;div&gt;secuencial&lt;/div&gt;" style="html=1;verticalAlign=bottom;endArrow=open;dashed=1;endSize=8;curved=0;rounded=0;" edge="1" parent="1">
          <mxGeometry relative="1" as="geometry">
            <mxPoint x="565" y="430" as="sourcePoint" />
            <mxPoint x="455" y="430" as="targetPoint" />
          </mxGeometry>
        </mxCell>
        <mxCell id="t3nlj7Du9AAXi3R9bIyf-44" value="Ingresar&amp;nbsp;&lt;div&gt;Variable B&lt;/div&gt;" style="html=1;verticalAlign=bottom;endArrow=block;edgeStyle=elbowEdgeStyle;elbow=vertical;curved=0;rounded=0;" edge="1" parent="1">
          <mxGeometry relative="1" as="geometry">
            <mxPoint x="455" y="120" as="sourcePoint" />
            <Array as="points" />
            <mxPoint x="565" y="120" as="targetPoint" />
          </mxGeometry>
        </mxCell>
        <mxCell id="t3nlj7Du9AAXi3R9bIyf-48" value="Ingresar&amp;nbsp;&lt;div&gt;Variable B&lt;/div&gt;" style="html=1;verticalAlign=bottom;endArrow=block;edgeStyle=elbowEdgeStyle;elbow=vertical;curved=0;rounded=0;" edge="1" parent="1">
          <mxGeometry relative="1" as="geometry">
            <mxPoint x="455" y="210" as="sourcePoint" />
            <Array as="points" />
            <mxPoint x="565" y="210" as="targetPoint" />
          </mxGeometry>
        </mxCell>
        <mxCell id="t3nlj7Du9AAXi3R9bIyf-49" value="Ingresar&amp;nbsp;&lt;div&gt;Variable B&lt;/div&gt;" style="html=1;verticalAlign=bottom;endArrow=block;edgeStyle=elbowEdgeStyle;elbow=vertical;curved=0;rounded=0;" edge="1" parent="1">
          <mxGeometry relative="1" as="geometry">
            <mxPoint x="455" y="300" as="sourcePoint" />
            <Array as="points" />
            <mxPoint x="565" y="300" as="targetPoint" />
          </mxGeometry>
        </mxCell>
        <mxCell id="t3nlj7Du9AAXi3R9bIyf-50" value="Ingresar&amp;nbsp;&lt;div&gt;Variable B&lt;/div&gt;" style="html=1;verticalAlign=bottom;endArrow=block;edgeStyle=elbowEdgeStyle;elbow=vertical;curved=0;rounded=0;" edge="1" parent="1">
          <mxGeometry relative="1" as="geometry">
            <mxPoint x="455" y="390" as="sourcePoint" />
            <Array as="points" />
            <mxPoint x="565" y="390" as="targetPoint" />
          </mxGeometry>
        </mxCell>
        <mxCell id="t3nlj7Du9AAXi3R9bIyf-51" value="mostrar interfaz" style="html=1;verticalAlign=bottom;endArrow=open;dashed=1;endSize=8;curved=0;rounded=0;" edge="1" parent="1">
          <mxGeometry relative="1" as="geometry">
            <mxPoint x="205" y="170" as="sourcePoint" />
            <mxPoint x="95" y="170" as="targetPoint" />
          </mxGeometry>
        </mxCell>
        <mxCell id="t3nlj7Du9AAXi3R9bIyf-52" value="Ingresa datos" style="html=1;verticalAlign=bottom;endArrow=block;edgeStyle=elbowEdgeStyle;elbow=horizontal;curved=0;rounded=0;" edge="1" parent="1" source="t3nlj7Du9AAXi3R9bIyf-17" target="aM9ryv3xv72pqoxQDRHE-6">
          <mxGeometry relative="1" as="geometry">
            <mxPoint x="90" y="230" as="sourcePoint" />
            <Array as="points">
              <mxPoint x="180" y="260" />
            </Array>
            <mxPoint x="205" y="230" as="targetPoint" />
          </mxGeometry>
        </mxCell>
        <mxCell id="t3nlj7Du9AAXi3R9bIyf-54" value="Imprimir&amp;nbsp;&lt;div&gt;Variable A&lt;/div&gt;" style="html=1;verticalAlign=bottom;endArrow=open;dashed=1;endSize=8;curved=0;rounded=0;" edge="1" parent="1" source="t3nlj7Du9AAXi3R9bIyf-12" target="aM9ryv3xv72pqoxQDRHE-6">
          <mxGeometry relative="1" as="geometry">
            <mxPoint x="330" y="270" as="sourcePoint" />
            <mxPoint x="220" y="270" as="targetPoint" />
          </mxGeometry>
        </mxCell>
        <mxCell id="t3nlj7Du9AAXi3R9bIyf-55" value="Mostrar&lt;div&gt;&amp;nbsp;Variable A&lt;/div&gt;" style="html=1;verticalAlign=bottom;endArrow=open;dashed=1;endSize=8;curved=0;rounded=0;" edge="1" parent="1" source="aM9ryv3xv72pqoxQDRHE-6" target="t3nlj7Du9AAXi3R9bIyf-17">
          <mxGeometry relative="1" as="geometry">
            <mxPoint x="335" y="295" as="sourcePoint" />
            <mxPoint x="225" y="295" as="targetPoint" />
            <Array as="points">
              <mxPoint x="160" y="330" />
            </Array>
          </mxGeometry>
        </mxCell>
        <mxCell id="t3nlj7Du9AAXi3R9bIyf-56" value="Imprimir&amp;nbsp;&lt;div&gt;Variable B&lt;/div&gt;" style="html=1;verticalAlign=bottom;endArrow=open;dashed=1;endSize=8;curved=0;rounded=0;" edge="1" parent="1">
          <mxGeometry x="-0.6857" relative="1" as="geometry">
            <mxPoint x="565" y="500" as="sourcePoint" />
            <mxPoint x="215" y="500" as="targetPoint" />
            <mxPoint as="offset" />
          </mxGeometry>
        </mxCell>
        <mxCell id="t3nlj7Du9AAXi3R9bIyf-58" value="Mostrar&lt;div&gt;&amp;nbsp;Variable B&lt;/div&gt;" style="html=1;verticalAlign=bottom;endArrow=open;dashed=1;endSize=8;curved=0;rounded=0;" edge="1" parent="1" source="aM9ryv3xv72pqoxQDRHE-6" target="t3nlj7Du9AAXi3R9bIyf-17">
          <mxGeometry relative="1" as="geometry">
            <mxPoint x="210" y="520" as="sourcePoint" />
            <mxPoint x="100" y="520" as="targetPoint" />
            <Array as="points">
              <mxPoint x="165" y="520" />
            </Array>
          </mxGeometry>
        </mxCell>
        <mxCell id="t3nlj7Du9AAXi3R9bIyf-59" value="Solicitar resultado" style="html=1;verticalAlign=bottom;endArrow=block;edgeStyle=elbowEdgeStyle;elbow=vertical;curved=0;rounded=0;" edge="1" parent="1" source="t3nlj7Du9AAXi3R9bIyf-26" target="t3nlj7Du9AAXi3R9bIyf-27">
          <mxGeometry relative="1" as="geometry">
            <mxPoint x="570" y="150" as="sourcePoint" />
            <Array as="points">
              <mxPoint x="655" y="150" />
            </Array>
            <mxPoint x="680" y="150" as="targetPoint" />
          </mxGeometry>
        </mxCell>
        <mxCell id="t3nlj7Du9AAXi3R9bIyf-61" value="Imprimir&amp;nbsp;&lt;div&gt;Resultado&lt;/div&gt;" style="html=1;verticalAlign=bottom;endArrow=open;dashed=1;endSize=8;curved=0;rounded=0;" edge="1" parent="1">
          <mxGeometry x="-0.8085" relative="1" as="geometry">
            <mxPoint x="685" y="550" as="sourcePoint" />
            <mxPoint x="215" y="550" as="targetPoint" />
            <mxPoint as="offset" />
          </mxGeometry>
        </mxCell>
        <mxCell id="t3nlj7Du9AAXi3R9bIyf-62" value="Imprimir&amp;nbsp;&lt;div&gt;&quot;No se divide&amp;nbsp;&lt;/div&gt;&lt;div&gt;entre cero&quot;&lt;/div&gt;" style="html=1;verticalAlign=bottom;endArrow=open;dashed=1;endSize=8;curved=0;rounded=0;" edge="1" parent="1">
          <mxGeometry x="-0.8085" relative="1" as="geometry">
            <mxPoint x="685" y="610" as="sourcePoint" />
            <mxPoint x="215" y="610" as="targetPoint" />
            <mxPoint as="offset" />
          </mxGeometry>
        </mxCell>
        <mxCell id="t3nlj7Du9AAXi3R9bIyf-63" value="Mostrar&lt;div&gt;&amp;nbsp;Resultado&lt;/div&gt;" style="html=1;verticalAlign=bottom;endArrow=open;dashed=1;endSize=8;curved=0;rounded=0;" edge="1" parent="1" source="aM9ryv3xv72pqoxQDRHE-6" target="t3nlj7Du9AAXi3R9bIyf-17">
          <mxGeometry relative="1" as="geometry">
            <mxPoint x="200" y="580" as="sourcePoint" />
            <mxPoint x="90" y="580" as="targetPoint" />
            <Array as="points">
              <mxPoint x="160" y="580" />
            </Array>
          </mxGeometry>
        </mxCell>
        <mxCell id="t3nlj7Du9AAXi3R9bIyf-64" value="Mostrar&lt;div&gt;&amp;nbsp;&quot;No se divide&lt;/div&gt;&lt;div&gt;entre cero&quot;&lt;/div&gt;" style="html=1;verticalAlign=bottom;endArrow=open;dashed=1;endSize=8;curved=0;rounded=0;" edge="1" parent="1" source="aM9ryv3xv72pqoxQDRHE-6" target="t3nlj7Du9AAXi3R9bIyf-17">
          <mxGeometry relative="1" as="geometry">
            <mxPoint x="200" y="630" as="sourcePoint" />
            <mxPoint x="90" y="630" as="targetPoint" />
            <Array as="points">
              <mxPoint x="160" y="630" />
            </Array>
          </mxGeometry>
        </mxCell>
      </root>
    </mxGraphModel>
  </diagram>
</mxfile>
